Coordinates
version=1
nRows=43
nColumns=12
inDegrees=yes

Units are S.I. units (second, meters, Newtons, ...)
Angles are in degrees

endheader
time	SC_y	SC_z	SC_x	AC_y	AC_z	AC_x	GH_y	GH_z	GH_yy	EL_x	PS_y
       0.0              -42.85          7.693          3.497           65.3          2.623         -8.119          32.33          31.85          123.5          87.47           21.4
   0.04512              -42.85          7.696            3.5           65.3           2.62         -8.119          32.31          31.85          123.5          87.47          21.41
   0.09025              -42.85          7.698          3.504           65.3          2.617         -8.119           32.3          31.86          123.5          87.47          21.43
    0.1354              -42.84            7.7          3.507           65.3          2.614         -8.119          32.28          31.87          123.5          87.46          21.44
    0.1805              -42.84          7.703          3.511           65.3          2.611          -8.12          32.26          31.87          123.5          87.46          21.45
    0.2256              -42.83          7.706          3.515           65.3          2.608          -8.12          32.23          31.88          123.6          87.46          21.47
    0.2707              -42.83          7.709           3.52           65.3          2.604          -8.12          32.21          31.89          123.6          87.45          21.48
    0.3159              -42.82          7.712          3.524           65.3          2.601          -8.12          32.18           31.9          123.6          87.45           21.5
     0.361              -42.82          7.715           3.53           65.3          2.596          -8.12          32.16          31.91          123.6          87.44          21.52
    0.4061              -42.81          7.719          3.535           65.3          2.592         -8.121          32.13          31.92          123.6          87.43          21.54
    0.4512               -42.8          7.723          3.541           65.3          2.587         -8.121           32.1          31.93          123.6          87.43          21.56
    0.4964              -42.79          7.727          3.547           65.3          2.582         -8.121          32.06          31.94          123.6          87.42          21.58
    0.5415              -42.79          7.732          3.554           65.3          2.577         -8.122          32.03          31.95          123.6          87.42           21.6
    0.5866              -42.78          7.737          3.561           65.3          2.571         -8.122          31.99          31.96          123.7          87.41          21.63
    0.6317              -42.77          7.742          3.569           65.3          2.564         -8.122          31.95          31.98          123.7           87.4          21.66
    0.6769              -42.76          7.748          3.578           65.3          2.557         -8.123           31.9          31.99          123.7          87.39          21.69
     0.722              -42.75          7.754          3.587           65.3           2.55         -8.123          31.85          32.01          123.7          87.38          21.72
    0.7671              -42.73          7.761          3.598           65.3          2.542         -8.124          31.79          32.03          123.7          87.37          21.76
    0.8122              -42.72          7.769          3.609           65.3          2.533         -8.124          31.74          32.05          123.8          87.36           21.8
    0.8574              -42.71          7.777          3.621           65.3          2.523         -8.125          31.67          32.07          123.8          87.35          21.84
    0.9025              -42.69          7.786          3.635           65.3          2.512         -8.125           31.6          32.09          123.8          87.33          21.89
    0.9476              -42.67          7.796          3.649           65.3            2.5         -8.126          31.52          32.12          123.9          87.32          21.94
    0.9927              -42.65          7.807          3.666           65.3          2.487         -8.127          31.43          32.15          123.9           87.3           22.0
     1.038              -42.63          7.819          3.684           65.3          2.472         -8.128          31.34          32.18          123.9          87.28          22.06
     1.083              -42.61          7.833          3.704           65.3          2.456         -8.128          31.23          32.22          124.0          87.26          22.13
     1.128              -42.58          7.848          3.726           65.3          2.438         -8.129          31.11          32.26          124.0          87.24          22.21
     1.173              -42.55          7.865          3.752           65.3          2.418         -8.131          30.98           32.3          124.1          87.21           22.3
     1.218              -42.52          7.884           3.78           65.3          2.395         -8.132          30.83          32.35          124.2          87.18           22.4
     1.263              -42.48          7.905          3.812          65.31           2.37         -8.133          30.66          32.41          124.2          87.15          22.51
     1.309              -42.44           7.93          3.848          65.31           2.34         -8.135          30.46          32.47          124.3          87.11          22.64
     1.354              -42.39          7.958           3.89          65.31          2.307         -8.137          30.24          32.55          124.4          87.07          22.79
     1.399              -42.33           7.99          3.937          65.31          2.269         -8.139          29.99          32.63          124.5          87.02          22.96
     1.444              -42.27          8.027          3.992          65.31          2.225         -8.142           29.7          32.73          124.6          86.97          23.15
     1.489              -42.19           8.07          4.056          65.31          2.173         -8.144          29.36          32.84          124.8           86.9          23.37
     1.534               -42.1           8.12          4.131          65.31          2.113         -8.148          28.96          32.98          124.9          86.82          23.64
     1.579               -42.0          8.179          4.219          65.31          2.043         -8.152          28.49          33.13          125.1          86.73          23.95
     1.624              -41.87           8.25          4.323          65.31          1.959         -8.157          27.94          33.32          125.4          86.62          24.32
      1.67              -41.73          8.334          4.449          65.32          1.858         -8.162          27.27          33.54          125.7           86.5          24.76
     1.715              -41.55          8.436            4.6          65.32          1.736         -8.169          26.47          33.81          126.0          86.34          25.29
      1.76              -41.33          8.561          4.785          65.32          1.587         -8.178          25.48          34.14          126.4          86.15          25.95
     1.805              -41.05          8.715          5.014          65.33          1.403         -8.188          24.27          34.55          126.9          85.91          26.76
      1.85              -40.72          8.907          5.299          65.33          1.174         -8.201          22.75          35.06          127.6          85.62          27.76
     1.895              -40.29          9.149          5.658          65.34         0.8855         -8.217          20.84           35.7          128.4          85.25          29.03
